<mxfile host="65bd71144e">
    <diagram id="z__zmrcmEBkHby5Mq3uI" name="Page-1">
        <mxGraphModel dx="568" dy="647" grid="1" gridSize="10" guides="1" tooltips="1" connect="1" arrows="1" fold="1" page="1" pageScale="1" pageWidth="850" pageHeight="1100" math="0" shadow="0">
            <root>
                <mxCell id="0"/>
                <mxCell id="1" parent="0"/>
                <mxCell id="29" value="" style="edgeStyle=none;html=1;" edge="1" parent="1" source="25" target="28">
                    <mxGeometry relative="1" as="geometry"/>
                </mxCell>
                <mxCell id="25" value="Actor" style="shape=umlActor;verticalLabelPosition=bottom;verticalAlign=top;html=1;outlineConnect=0;fontFamily=Comic Sans MS;" vertex="1" parent="1">
                    <mxGeometry x="190" y="270" width="50" height="90" as="geometry"/>
                </mxCell>
                <mxCell id="28" value="test" style="whiteSpace=wrap;html=1;verticalAlign=top;" vertex="1" parent="1">
                    <mxGeometry x="280" y="285" width="120" height="60" as="geometry"/>
                </mxCell>
                <mxCell id="33" value="" style="html=1;points=[];perimeter=orthogonalPerimeter;fontFamily=Verdana;" vertex="1" parent="1">
                    <mxGeometry x="120" y="490" width="10" height="60" as="geometry"/>
                </mxCell>
                <mxCell id="34" value="callback" style="html=1;verticalAlign=bottom;endArrow=block;entryX=1;entryY=0;fontFamily=Verdana;" edge="1" target="33" parent="1">
                    <mxGeometry relative="1" as="geometry">
                        <mxPoint x="450" y="490" as="sourcePoint"/>
                    </mxGeometry>
                </mxCell>
                <mxCell id="35" value="return" style="html=1;verticalAlign=bottom;endArrow=open;dashed=1;endSize=8;exitX=1;exitY=0.95;fontFamily=Verdana;entryX=-0.3;entryY=0.844;entryDx=0;entryDy=0;entryPerimeter=0;" edge="1" source="33" parent="1" target="36">
                    <mxGeometry relative="1" as="geometry">
                        <mxPoint x="440" y="547" as="targetPoint"/>
                    </mxGeometry>
                </mxCell>
                <mxCell id="36" value="" style="html=1;points=[];perimeter=orthogonalPerimeter;fontFamily=Verdana;" vertex="1" parent="1">
                    <mxGeometry x="450" y="480" width="10" height="80" as="geometry"/>
                </mxCell>
            </root>
        </mxGraphModel>
    </diagram>
</mxfile>